<?xml version="1.0" encoding="utf-8" standalone="no"?>
<!DOCTYPE svg PUBLIC "-//W3C//DTD SVG 1.1//EN"
  "http://www.w3.org/Graphics/SVG/1.1/DTD/svg11.dtd">
<!-- Created with matplotlib (https://matplotlib.org/) -->
<svg height="360pt" version="1.1" viewBox="0 0 360 360" width="360pt" xmlns="http://www.w3.org/2000/svg" xmlns:xlink="http://www.w3.org/1999/xlink">
 <defs>
  <style type="text/css">
*{stroke-linecap:butt;stroke-linejoin:round;}
  </style>
 </defs>
 <g id="figure_1">
  <g id="axes_1">
   <g id="PathCollection_1">
    <defs>
     <path d="M 0 3 
C 0.795609 3 1.55874 2.683901 2.12132 2.12132 
C 2.683901 1.55874 3 0.795609 3 0 
C 3 -0.795609 2.683901 -1.55874 2.12132 -2.12132 
C 1.55874 -2.683901 0.795609 -3 0 -3 
C -0.795609 -3 -1.55874 -2.683901 -2.12132 -2.12132 
C -2.683901 -1.55874 -3 -0.795609 -3 0 
C -3 0.795609 -2.683901 1.55874 -2.12132 2.12132 
C -1.55874 2.683901 -0.795609 3 0 3 
z
" id="m3f52e9c939" style="stroke:#000000;"/>
    </defs>
    <g clip-path="url(#p4e51aa4a0a)">
     <use style="stroke:#000000;" x="193.450716" xlink:href="#m3f52e9c939" y="163.380311"/>
     <use style="stroke:#000000;" x="128.381088" xlink:href="#m3f52e9c939" y="244.70656"/>
     <use style="stroke:#000000;" x="99.637633" xlink:href="#m3f52e9c939" y="219.130223"/>
     <use style="stroke:#000000;" x="266.578259" xlink:href="#m3f52e9c939" y="152.115028"/>
     <use style="stroke:#000000;" x="137.286553" xlink:href="#m3f52e9c939" y="299.977086"/>
     <use style="stroke:#000000;" x="81.141164" xlink:href="#m3f52e9c939" y="238.102737"/>
     <use style="stroke:#000000;" x="64.411604" xlink:href="#m3f52e9c939" y="241.616179"/>
     <use style="stroke:#000000;" x="102.091845" xlink:href="#m3f52e9c939" y="58.222914"/>
     <use style="stroke:#000000;" x="77.19915" xlink:href="#m3f52e9c939" y="289.099527"/>
     <use style="stroke:#000000;" x="60.351675" xlink:href="#m3f52e9c939" y="118.473211"/>
     <use style="stroke:#000000;" x="308.648325" xlink:href="#m3f52e9c939" y="250.722925"/>
    </g>
   </g>
   <g id="text_1">
    <!-- mittelmeer -->
    <defs>
     <path d="M 7.046875 0 
L 7.046875 50.65625 
L 12.40625 50.65625 
Q 14.296875 50.65625 14.75 48.796875 
L 15.40625 43.59375 
Q 18.203125 47.046875 21.703125 49.25 
Q 25.203125 51.453125 29.796875 51.453125 
Q 34.90625 51.453125 38.078125 48.59375 
Q 41.25 45.75 42.65625 40.90625 
Q 43.75 43.65625 45.46875 45.65625 
Q 47.203125 47.65625 49.34375 48.953125 
Q 51.5 50.25 53.921875 50.84375 
Q 56.34375 51.453125 58.84375 51.453125 
Q 62.84375 51.453125 65.96875 50.171875 
Q 69.09375 48.90625 71.265625 46.453125 
Q 73.453125 44 74.59375 40.421875 
Q 75.75 36.84375 75.75 32.25 
L 75.75 0 
L 66.796875 0 
L 66.796875 32.25 
Q 66.796875 38.203125 64.1875 41.265625 
Q 61.59375 44.34375 56.703125 44.34375 
Q 54.5 44.34375 52.515625 43.5625 
Q 50.546875 42.796875 49.046875 41.296875 
Q 47.546875 39.796875 46.671875 37.515625 
Q 45.796875 35.25 45.796875 32.25 
L 45.796875 0 
L 36.84375 0 
L 36.84375 32.25 
Q 36.84375 38.34375 34.390625 41.34375 
Q 31.953125 44.34375 27.25 44.34375 
Q 23.953125 44.34375 21.140625 42.5625 
Q 18.34375 40.796875 16 37.75 
L 16 0 
z
" id="Lato-Regular-109"/>
     <path d="M 16.453125 50.65625 
L 16.453125 0 
L 7.546875 0 
L 7.546875 50.65625 
z
M 18.34375 66.546875 
Q 18.34375 65.25 17.8125 64.125 
Q 17.296875 63 16.421875 62.125 
Q 15.546875 61.25 14.375 60.75 
Q 13.203125 60.25 11.90625 60.25 
Q 10.59375 60.25 9.46875 60.75 
Q 8.34375 61.25 7.5 62.125 
Q 6.65625 63 6.15625 64.125 
Q 5.65625 65.25 5.65625 66.546875 
Q 5.65625 67.84375 6.15625 69.015625 
Q 6.65625 70.203125 7.5 71.078125 
Q 8.34375 71.953125 9.46875 72.453125 
Q 10.59375 72.953125 11.90625 72.953125 
Q 13.203125 72.953125 14.375 72.453125 
Q 15.546875 71.953125 16.421875 71.078125 
Q 17.296875 70.203125 17.8125 69.015625 
Q 18.34375 67.84375 18.34375 66.546875 
z
" id="Lato-Regular-105"/>
     <path d="M 22.59375 -0.796875 
Q 16.59375 -0.796875 13.375 2.546875 
Q 10.15625 5.90625 10.15625 12.203125 
L 10.15625 43.203125 
L 4.046875 43.203125 
Q 3.25 43.203125 2.703125 43.671875 
Q 2.15625 44.15625 2.15625 45.15625 
L 2.15625 48.703125 
L 10.453125 49.75 
L 12.5 65.40625 
Q 12.65625 66.15625 13.171875 66.625 
Q 13.703125 67.09375 14.546875 67.09375 
L 19.046875 67.09375 
L 19.046875 49.65625 
L 33.703125 49.65625 
L 33.703125 43.203125 
L 19.046875 43.203125 
L 19.046875 12.796875 
Q 19.046875 9.59375 20.59375 8.046875 
Q 22.15625 6.5 24.59375 6.5 
Q 26 6.5 27.015625 6.875 
Q 28.046875 7.25 28.796875 7.703125 
Q 29.546875 8.15625 30.0625 8.53125 
Q 30.59375 8.90625 31 8.90625 
Q 31.703125 8.90625 32.25 8.046875 
L 34.84375 3.796875 
Q 32.546875 1.65625 29.296875 0.421875 
Q 26.046875 -0.796875 22.59375 -0.796875 
z
" id="Lato-Regular-116"/>
     <path d="M 27.796875 51.453125 
Q 32.34375 51.453125 36.21875 49.921875 
Q 40.09375 48.40625 42.921875 45.53125 
Q 45.75 42.65625 47.34375 38.421875 
Q 48.953125 34.203125 48.953125 28.796875 
Q 48.953125 26.703125 48.5 26 
Q 48.046875 25.296875 46.796875 25.296875 
L 12.953125 25.296875 
Q 13.046875 20.5 14.25 16.953125 
Q 15.453125 13.40625 17.546875 11.03125 
Q 19.65625 8.65625 22.546875 7.46875 
Q 25.453125 6.296875 29.046875 6.296875 
Q 32.40625 6.296875 34.828125 7.0625 
Q 37.25 7.84375 39 8.75 
Q 40.75 9.65625 41.921875 10.421875 
Q 43.09375 11.203125 43.953125 11.203125 
Q 45.046875 11.203125 45.65625 10.34375 
L 48.15625 7.09375 
Q 46.5 5.09375 44.203125 3.625 
Q 41.90625 2.15625 39.28125 1.203125 
Q 36.65625 0.25 33.84375 -0.21875 
Q 31.046875 -0.703125 28.296875 -0.703125 
Q 23.046875 -0.703125 18.625 1.0625 
Q 14.203125 2.84375 10.96875 6.265625 
Q 7.75 9.703125 5.953125 14.75 
Q 4.15625 19.796875 4.15625 26.34375 
Q 4.15625 31.65625 5.78125 36.25 
Q 7.40625 40.84375 10.453125 44.21875 
Q 13.5 47.59375 17.890625 49.515625 
Q 22.296875 51.453125 27.796875 51.453125 
z
M 28 44.90625 
Q 21.546875 44.90625 17.84375 41.171875 
Q 14.15625 37.453125 13.25 30.84375 
L 40.953125 30.84375 
Q 40.953125 33.953125 40.078125 36.515625 
Q 39.203125 39.09375 37.515625 40.96875 
Q 35.84375 42.84375 33.4375 43.875 
Q 31.046875 44.90625 28 44.90625 
z
" id="Lato-Regular-101"/>
     <path d="M 16.25 73.65625 
L 16.25 0 
L 7.34375 0 
L 7.34375 73.65625 
z
" id="Lato-Regular-108"/>
     <path d="M 7.046875 0 
L 7.046875 50.65625 
L 12.15625 50.65625 
Q 13.59375 50.65625 14.140625 50.09375 
Q 14.703125 49.546875 14.90625 48.203125 
L 15.453125 40.5 
Q 17.84375 45.703125 21.375 48.625 
Q 24.90625 51.546875 29.953125 51.546875 
Q 31.546875 51.546875 33.015625 51.1875 
Q 34.5 50.84375 35.65625 50.09375 
L 35 43.453125 
Q 34.703125 42.203125 33.5 42.203125 
Q 32.796875 42.203125 31.4375 42.5 
Q 30.09375 42.796875 28.40625 42.796875 
Q 26 42.796875 24.09375 42.0625 
Q 22.203125 41.34375 20.71875 39.96875 
Q 19.25 38.59375 18.09375 36.59375 
Q 16.953125 34.59375 16 32 
L 16 0 
z
" id="Lato-Regular-114"/>
    </defs>
    <g transform="translate(198.416649 168.215394)scale(0.1 -0.1)">
     <use xlink:href="#Lato-Regular-109"/>
     <use x="82.250015" xlink:href="#Lato-Regular-105"/>
     <use x="106.250015" xlink:href="#Lato-Regular-116"/>
     <use x="142.100021" xlink:href="#Lato-Regular-116"/>
     <use x="177.950027" xlink:href="#Lato-Regular-101"/>
     <use x="230.750031" xlink:href="#Lato-Regular-108"/>
     <use x="254.350037" xlink:href="#Lato-Regular-109"/>
     <use x="336.600052" xlink:href="#Lato-Regular-101"/>
     <use x="389.400055" xlink:href="#Lato-Regular-101"/>
     <use x="442.200058" xlink:href="#Lato-Regular-114"/>
    </g>
   </g>
   <g id="text_2">
    <!-- schlauchboot -->
    <defs>
     <path d="M 36.546875 42.296875 
Q 35.953125 41.203125 34.703125 41.203125 
Q 33.953125 41.203125 33 41.75 
Q 32.046875 42.296875 30.671875 42.96875 
Q 29.296875 43.65625 27.390625 44.21875 
Q 25.5 44.796875 22.90625 44.796875 
Q 20.65625 44.796875 18.84375 44.21875 
Q 17.046875 43.65625 15.765625 42.65625 
Q 14.5 41.65625 13.828125 40.328125 
Q 13.15625 39 13.15625 37.453125 
Q 13.15625 35.5 14.28125 34.203125 
Q 15.40625 32.90625 17.25 31.953125 
Q 19.09375 31 21.4375 30.265625 
Q 23.796875 29.546875 26.265625 28.71875 
Q 28.75 27.90625 31.09375 26.90625 
Q 33.453125 25.90625 35.296875 24.40625 
Q 37.15625 22.90625 38.28125 20.71875 
Q 39.40625 18.546875 39.40625 15.5 
Q 39.40625 12 38.15625 9.015625 
Q 36.90625 6.046875 34.453125 3.875 
Q 32 1.703125 28.453125 0.453125 
Q 24.90625 -0.796875 20.25 -0.796875 
Q 14.953125 -0.796875 10.640625 0.921875 
Q 6.34375 2.65625 3.34375 5.34375 
L 5.453125 8.75 
Q 5.84375 9.40625 6.390625 9.75 
Q 6.953125 10.09375 7.796875 10.09375 
Q 8.703125 10.09375 9.703125 9.390625 
Q 10.703125 8.703125 12.125 7.84375 
Q 13.546875 7 15.59375 6.296875 
Q 17.65625 5.59375 20.703125 5.59375 
Q 23.296875 5.59375 25.25 6.265625 
Q 27.203125 6.953125 28.5 8.09375 
Q 29.796875 9.25 30.421875 10.75 
Q 31.046875 12.25 31.046875 13.953125 
Q 31.046875 16.046875 29.921875 17.421875 
Q 28.796875 18.796875 26.9375 19.765625 
Q 25.09375 20.75 22.71875 21.46875 
Q 20.34375 22.203125 17.875 23 
Q 15.40625 23.796875 13.03125 24.8125 
Q 10.65625 25.84375 8.796875 27.390625 
Q 6.953125 28.953125 5.828125 31.21875 
Q 4.703125 33.5 4.703125 36.75 
Q 4.703125 39.65625 5.890625 42.328125 
Q 7.09375 45 9.390625 47.015625 
Q 11.703125 49.046875 15.046875 50.25 
Q 18.40625 51.453125 22.703125 51.453125 
Q 27.703125 51.453125 31.671875 49.875 
Q 35.65625 48.296875 38.546875 45.546875 
z
" id="Lato-Regular-115"/>
     <path d="M 42.296875 41.65625 
Q 41.90625 41.09375 41.5 40.796875 
Q 41.09375 40.5 40.40625 40.5 
Q 39.65625 40.5 38.75 41.125 
Q 37.84375 41.75 36.515625 42.5 
Q 35.203125 43.25 33.265625 43.875 
Q 31.34375 44.5 28.546875 44.5 
Q 24.796875 44.5 21.9375 43.171875 
Q 19.09375 41.84375 17.171875 39.34375 
Q 15.25 36.84375 14.265625 33.296875 
Q 13.296875 29.75 13.296875 25.34375 
Q 13.296875 20.75 14.34375 17.171875 
Q 15.40625 13.59375 17.328125 11.171875 
Q 19.25 8.75 21.96875 7.46875 
Q 24.703125 6.203125 28.09375 6.203125 
Q 31.34375 6.203125 33.4375 6.96875 
Q 35.546875 7.75 36.921875 8.703125 
Q 38.296875 9.65625 39.21875 10.421875 
Q 40.15625 11.203125 41.046875 11.203125 
Q 42.15625 11.203125 42.75 10.34375 
L 45.25 7.09375 
Q 43.59375 5.046875 41.5 3.59375 
Q 39.40625 2.15625 36.96875 1.171875 
Q 34.546875 0.203125 31.890625 -0.25 
Q 29.25 -0.703125 26.5 -0.703125 
Q 21.75 -0.703125 17.671875 1.046875 
Q 13.59375 2.796875 10.59375 6.125 
Q 7.59375 9.453125 5.890625 14.296875 
Q 4.203125 19.15625 4.203125 25.34375 
Q 4.203125 31 5.765625 35.796875 
Q 7.34375 40.59375 10.375 44.0625 
Q 13.40625 47.546875 17.828125 49.5 
Q 22.25 51.453125 28 51.453125 
Q 33.34375 51.453125 37.421875 49.71875 
Q 41.5 48 44.65625 44.84375 
z
" id="Lato-Regular-99"/>
     <path d="M 7.046875 0 
L 7.046875 73.65625 
L 16 73.65625 
L 16 43.84375 
Q 19.25 47.296875 23.203125 49.375 
Q 27.15625 51.453125 32.296875 51.453125 
Q 36.453125 51.453125 39.625 50.078125 
Q 42.796875 48.703125 44.921875 46.171875 
Q 47.046875 43.65625 48.140625 40.09375 
Q 49.25 36.546875 49.25 32.25 
L 49.25 0 
L 40.296875 0 
L 40.296875 32.25 
Q 40.296875 38 37.671875 41.171875 
Q 35.046875 44.34375 29.703125 44.34375 
Q 25.703125 44.34375 22.265625 42.4375 
Q 18.84375 40.546875 16 37.296875 
L 16 0 
z
" id="Lato-Regular-104"/>
     <path d="M 39.25 0 
Q 37.953125 0 37.25 0.421875 
Q 36.546875 0.84375 36.15625 2.09375 
L 35.15625 6.84375 
Q 33.15625 5.046875 31.21875 3.625 
Q 29.296875 2.203125 27.21875 1.21875 
Q 25.15625 0.25 22.78125 -0.265625 
Q 20.40625 -0.796875 17.5 -0.796875 
Q 14.546875 -0.796875 11.9375 0.015625 
Q 9.34375 0.84375 7.421875 2.5 
Q 5.5 4.15625 4.375 6.671875 
Q 3.25 9.203125 3.25 12.65625 
Q 3.25 15.65625 4.890625 18.421875 
Q 6.546875 21.203125 10.25 23.34375 
Q 13.953125 25.5 19.890625 26.875 
Q 25.84375 28.25 34.5 28.453125 
L 34.5 32.40625 
Q 34.5 38.296875 31.953125 41.3125 
Q 29.40625 44.34375 24.5 44.34375 
Q 21.203125 44.34375 18.96875 43.515625 
Q 16.75 42.703125 15.125 41.671875 
Q 13.5 40.65625 12.328125 39.828125 
Q 11.15625 39 10 39 
Q 9.09375 39 8.4375 39.46875 
Q 7.796875 39.953125 7.34375 40.65625 
L 5.75 43.5 
Q 9.953125 47.546875 14.796875 49.546875 
Q 19.65625 51.546875 25.546875 51.546875 
Q 29.796875 51.546875 33.09375 50.140625 
Q 36.40625 48.75 38.65625 46.25 
Q 40.90625 43.75 42.046875 40.203125 
Q 43.203125 36.65625 43.203125 32.40625 
L 43.203125 0 
z
M 20.15625 5.453125 
Q 22.5 5.453125 24.453125 5.921875 
Q 26.40625 6.40625 28.125 7.28125 
Q 29.84375 8.15625 31.421875 9.421875 
Q 33 10.703125 34.5 12.296875 
L 34.5 22.796875 
Q 28.34375 22.59375 24.015625 21.8125 
Q 19.703125 21.046875 16.96875 19.796875 
Q 14.25 18.546875 13.015625 16.84375 
Q 11.796875 15.15625 11.796875 13.046875 
Q 11.796875 11.046875 12.4375 9.59375 
Q 13.09375 8.15625 14.21875 7.21875 
Q 15.34375 6.296875 16.875 5.875 
Q 18.40625 5.453125 20.15625 5.453125 
z
" id="Lato-Regular-97"/>
     <path d="M 15.453125 50.65625 
L 15.453125 18.34375 
Q 15.453125 12.59375 18.078125 9.4375 
Q 20.703125 6.296875 26.09375 6.296875 
Q 30 6.296875 33.453125 8.140625 
Q 36.90625 10 39.796875 13.296875 
L 39.796875 50.65625 
L 48.703125 50.65625 
L 48.703125 0 
L 43.40625 0 
Q 41.5 0 41 1.84375 
L 40.296875 7.296875 
Q 37 3.65625 32.890625 1.421875 
Q 28.796875 -0.796875 23.5 -0.796875 
Q 19.34375 -0.796875 16.171875 0.578125 
Q 13 1.953125 10.84375 4.453125 
Q 8.703125 6.953125 7.625 10.5 
Q 6.546875 14.046875 6.546875 18.34375 
L 6.546875 50.65625 
z
" id="Lato-Regular-117"/>
     <path d="M 7.046875 0 
L 7.046875 73.65625 
L 16 73.65625 
L 16 43.296875 
Q 19.15625 47.046875 23.203125 49.25 
Q 27.25 51.453125 32.5 51.453125 
Q 36.953125 51.453125 40.515625 49.75 
Q 44.09375 48.046875 46.59375 44.8125 
Q 49.09375 41.59375 50.421875 37 
Q 51.75 32.40625 51.75 26.65625 
Q 51.75 20.5 50.25 15.453125 
Q 48.75 10.40625 45.921875 6.828125 
Q 43.09375 3.25 39.046875 1.265625 
Q 35 -0.703125 29.953125 -0.703125 
Q 24.953125 -0.703125 21.515625 1.171875 
Q 18.09375 3.046875 15.546875 6.5 
L 15.09375 1.90625 
Q 14.703125 0 12.796875 0 
z
M 29.546875 44.34375 
Q 25.203125 44.34375 21.953125 42.34375 
Q 18.703125 40.34375 16 36.703125 
L 16 12.203125 
Q 18.453125 8.90625 21.375 7.546875 
Q 24.296875 6.203125 27.796875 6.203125 
Q 34.953125 6.203125 38.75 11.25 
Q 42.546875 16.296875 42.546875 26.296875 
Q 42.546875 35.59375 39.171875 39.96875 
Q 35.796875 44.34375 29.546875 44.34375 
z
" id="Lato-Regular-98"/>
     <path d="M 28.40625 51.453125 
Q 33.953125 51.453125 38.390625 49.59375 
Q 42.84375 47.75 46 44.34375 
Q 49.15625 40.953125 50.828125 36.125 
Q 52.5 31.296875 52.5 25.34375 
Q 52.5 19.34375 50.828125 14.546875 
Q 49.15625 9.75 46 6.34375 
Q 42.84375 2.953125 38.390625 1.125 
Q 33.953125 -0.703125 28.40625 -0.703125 
Q 22.796875 -0.703125 18.3125 1.125 
Q 13.84375 2.953125 10.6875 6.34375 
Q 7.546875 9.75 5.875 14.546875 
Q 4.203125 19.34375 4.203125 25.34375 
Q 4.203125 31.296875 5.875 36.125 
Q 7.546875 40.953125 10.6875 44.34375 
Q 13.84375 47.75 18.3125 49.59375 
Q 22.796875 51.453125 28.40625 51.453125 
z
M 28.40625 6.25 
Q 35.90625 6.25 39.59375 11.265625 
Q 43.296875 16.296875 43.296875 25.296875 
Q 43.296875 34.34375 39.59375 39.390625 
Q 35.90625 44.453125 28.40625 44.453125 
Q 24.59375 44.453125 21.765625 43.140625 
Q 18.953125 41.84375 17.078125 39.390625 
Q 15.203125 36.953125 14.265625 33.375 
Q 13.34375 29.796875 13.34375 25.296875 
Q 13.34375 16.296875 17.0625 11.265625 
Q 20.796875 6.25 28.40625 6.25 
z
" id="Lato-Regular-111"/>
    </defs>
    <g transform="translate(133.347021 249.541643)scale(0.1 -0.1)">
     <use xlink:href="#Lato-Regular-115"/>
     <use x="43.300003" xlink:href="#Lato-Regular-99"/>
     <use x="91.050003" xlink:href="#Lato-Regular-104"/>
     <use x="146.850006" xlink:href="#Lato-Regular-108"/>
     <use x="170.450012" xlink:href="#Lato-Regular-97"/>
     <use x="220.150024" xlink:href="#Lato-Regular-117"/>
     <use x="275.900024" xlink:href="#Lato-Regular-99"/>
     <use x="323.650024" xlink:href="#Lato-Regular-104"/>
     <use x="379.450027" xlink:href="#Lato-Regular-98"/>
     <use x="435.450027" xlink:href="#Lato-Regular-111"/>
     <use x="492.15004" xlink:href="#Lato-Regular-111"/>
     <use x="548.850052" xlink:href="#Lato-Regular-116"/>
    </g>
   </g>
   <g id="text_3">
    <!-- flüchtlingsboot -->
    <defs>
     <path d="M 10.34375 0 
L 10.34375 43.046875 
L 4.75 43.703125 
Q 3.703125 43.953125 3.015625 44.46875 
Q 2.34375 45 2.34375 46 
L 2.34375 49.65625 
L 10.34375 49.65625 
L 10.34375 54.546875 
Q 10.34375 58.90625 11.5625 62.28125 
Q 12.796875 65.65625 15.0625 67.96875 
Q 17.34375 70.296875 20.546875 71.5 
Q 23.75 72.703125 27.75 72.703125 
Q 31.15625 72.703125 34 71.703125 
L 33.796875 67.25 
Q 33.703125 66.046875 32.46875 65.9375 
Q 31.25 65.84375 29.203125 65.84375 
Q 26.90625 65.84375 25.03125 65.25 
Q 23.15625 64.65625 21.796875 63.296875 
Q 20.453125 61.953125 19.71875 59.75 
Q 19 57.546875 19 54.296875 
L 19 49.65625 
L 33.59375 49.65625 
L 33.59375 43.203125 
L 19.296875 43.203125 
L 19.296875 0 
z
" id="Lato-Regular-102"/>
     <path d="M 6.546875 0 
z
M 15.453125 50.65625 
L 15.453125 18.34375 
Q 15.453125 12.59375 18.078125 9.4375 
Q 20.703125 6.296875 26.09375 6.296875 
Q 30 6.296875 33.453125 8.140625 
Q 36.90625 10 39.796875 13.296875 
L 39.796875 50.65625 
L 48.703125 50.65625 
L 48.703125 0 
L 43.40625 0 
Q 41.5 0 41 1.84375 
L 40.296875 7.296875 
Q 37 3.65625 32.890625 1.421875 
Q 28.796875 -0.796875 23.5 -0.796875 
Q 19.34375 -0.796875 16.171875 0.578125 
Q 13 1.953125 10.84375 4.453125 
Q 8.703125 6.953125 7.625 10.5 
Q 6.546875 14.046875 6.546875 18.34375 
L 6.546875 50.65625 
z
M 24 64.453125 
Q 24 63.296875 23.546875 62.296875 
Q 23.09375 61.296875 22.296875 60.546875 
Q 21.5 59.796875 20.46875 59.34375 
Q 19.453125 58.90625 18.296875 58.90625 
Q 17.203125 58.90625 16.203125 59.34375 
Q 15.203125 59.796875 14.421875 60.546875 
Q 13.65625 61.296875 13.203125 62.296875 
Q 12.75 63.296875 12.75 64.453125 
Q 12.75 65.59375 13.203125 66.640625 
Q 13.65625 67.703125 14.421875 68.46875 
Q 15.203125 69.25 16.203125 69.703125 
Q 17.203125 70.15625 18.296875 70.15625 
Q 19.453125 70.15625 20.46875 69.703125 
Q 21.5 69.25 22.296875 68.46875 
Q 23.09375 67.703125 23.546875 66.640625 
Q 24 65.59375 24 64.453125 
z
M 43.046875 64.453125 
Q 43.046875 63.296875 42.59375 62.296875 
Q 42.15625 61.296875 41.375 60.546875 
Q 40.59375 59.796875 39.5625 59.34375 
Q 38.546875 58.90625 37.40625 58.90625 
Q 36.25 58.90625 35.21875 59.34375 
Q 34.203125 59.796875 33.453125 60.546875 
Q 32.703125 61.296875 32.25 62.296875 
Q 31.796875 63.296875 31.796875 64.453125 
Q 31.796875 65.59375 32.25 66.640625 
Q 32.703125 67.703125 33.453125 68.46875 
Q 34.203125 69.25 35.21875 69.703125 
Q 36.25 70.15625 37.40625 70.15625 
Q 38.546875 70.15625 39.5625 69.703125 
Q 40.59375 69.25 41.375 68.46875 
Q 42.15625 67.703125 42.59375 66.640625 
Q 43.046875 65.59375 43.046875 64.453125 
z
" id="Lato-Regular-252"/>
     <path d="M 7.046875 0 
L 7.046875 50.65625 
L 12.40625 50.65625 
Q 14.296875 50.65625 14.75 48.796875 
L 15.453125 43.296875 
Q 18.75 46.953125 22.84375 49.203125 
Q 26.953125 51.453125 32.296875 51.453125 
Q 36.453125 51.453125 39.625 50.078125 
Q 42.796875 48.703125 44.921875 46.171875 
Q 47.046875 43.65625 48.140625 40.09375 
Q 49.25 36.546875 49.25 32.25 
L 49.25 0 
L 40.296875 0 
L 40.296875 32.25 
Q 40.296875 38 37.671875 41.171875 
Q 35.046875 44.34375 29.703125 44.34375 
Q 25.703125 44.34375 22.265625 42.4375 
Q 18.84375 40.546875 16 37.296875 
L 16 0 
z
" id="Lato-Regular-110"/>
     <path d="M 24.703125 51.5 
Q 28 51.5 30.84375 50.765625 
Q 33.703125 50.046875 36.046875 48.65625 
L 49.796875 48.65625 
L 49.796875 45.34375 
Q 49.796875 43.703125 47.703125 43.25 
L 41.953125 42.453125 
Q 43.65625 39.203125 43.65625 35.203125 
Q 43.65625 31.5 42.21875 28.46875 
Q 40.796875 25.453125 38.296875 23.296875 
Q 35.796875 21.15625 32.296875 20 
Q 28.796875 18.84375 24.703125 18.84375 
Q 21.09375 18.84375 17.953125 19.703125 
Q 16.34375 18.703125 15.515625 17.546875 
Q 14.703125 16.40625 14.703125 15.296875 
Q 14.703125 13.5 16.171875 12.578125 
Q 17.65625 11.65625 20.046875 11.25 
Q 22.453125 10.84375 25.515625 10.75 
Q 28.59375 10.65625 31.8125 10.421875 
Q 35.046875 10.203125 38.125 9.640625 
Q 41.203125 9.09375 43.59375 7.84375 
Q 46 6.59375 47.46875 4.390625 
Q 48.953125 2.203125 48.953125 -1.296875 
Q 48.953125 -4.546875 47.328125 -7.59375 
Q 45.703125 -10.65625 42.640625 -13.03125 
Q 39.59375 -15.40625 35.171875 -16.828125 
Q 30.75 -18.25 25.203125 -18.25 
Q 19.65625 -18.25 15.5 -17.140625 
Q 11.34375 -16.046875 8.59375 -14.1875 
Q 5.84375 -12.34375 4.46875 -9.921875 
Q 3.09375 -7.5 3.09375 -4.84375 
Q 3.09375 -1.09375 5.4375 1.5 
Q 7.796875 4.09375 11.84375 5.65625 
Q 9.59375 6.65625 8.296875 8.328125 
Q 7 10 7 12.84375 
Q 7 13.953125 7.390625 15.125 
Q 7.796875 16.296875 8.625 17.4375 
Q 9.453125 18.59375 10.640625 19.640625 
Q 11.84375 20.703125 13.453125 21.5 
Q 9.703125 23.59375 7.59375 27.09375 
Q 5.5 30.59375 5.5 35.203125 
Q 5.5 38.90625 6.921875 41.921875 
Q 8.34375 44.953125 10.890625 47.078125 
Q 13.453125 49.203125 16.96875 50.34375 
Q 20.5 51.5 24.703125 51.5 
z
M 40.75 -2.75 
Q 40.75 -0.90625 39.703125 0.25 
Q 38.65625 1.40625 36.875 2.046875 
Q 35.09375 2.703125 32.75 2.96875 
Q 30.40625 3.25 27.78125 3.390625 
Q 25.15625 3.546875 22.453125 3.6875 
Q 19.75 3.84375 17.25 4.203125 
Q 14.453125 2.90625 12.671875 0.953125 
Q 10.90625 -1 10.90625 -3.703125 
Q 10.90625 -5.40625 11.78125 -6.875 
Q 12.65625 -8.34375 14.453125 -9.421875 
Q 16.25 -10.5 18.96875 -11.125 
Q 21.703125 -11.75 25.40625 -11.75 
Q 29 -11.75 31.84375 -11.09375 
Q 34.703125 -10.453125 36.671875 -9.25 
Q 38.65625 -8.046875 39.703125 -6.390625 
Q 40.75 -4.75 40.75 -2.75 
z
M 24.703125 24.75 
Q 27.40625 24.75 29.453125 25.5 
Q 31.5 26.25 32.890625 27.59375 
Q 34.296875 28.953125 35 30.828125 
Q 35.703125 32.703125 35.703125 34.953125 
Q 35.703125 39.59375 32.875 42.34375 
Q 30.046875 45.09375 24.703125 45.09375 
Q 19.296875 45.09375 16.46875 42.34375 
Q 13.65625 39.59375 13.65625 34.953125 
Q 13.65625 32.703125 14.375 30.828125 
Q 15.09375 28.953125 16.5 27.59375 
Q 17.90625 26.25 19.953125 25.5 
Q 22 24.75 24.703125 24.75 
z
" id="Lato-Regular-103"/>
    </defs>
    <g transform="translate(104.603566 223.965306)scale(0.1 -0.1)">
     <use xlink:href="#Lato-Regular-102"/>
     <use x="35.050003" xlink:href="#Lato-Regular-108"/>
     <use x="58.650009" xlink:href="#Lato-Regular-252"/>
     <use x="114.400009" xlink:href="#Lato-Regular-99"/>
     <use x="162.150009" xlink:href="#Lato-Regular-104"/>
     <use x="217.950012" xlink:href="#Lato-Regular-116"/>
     <use x="253.800018" xlink:href="#Lato-Regular-108"/>
     <use x="277.400024" xlink:href="#Lato-Regular-105"/>
     <use x="301.400024" xlink:href="#Lato-Regular-110"/>
     <use x="357.200027" xlink:href="#Lato-Regular-103"/>
     <use x="409.200027" xlink:href="#Lato-Regular-115"/>
     <use x="452.500031" xlink:href="#Lato-Regular-98"/>
     <use x="508.500031" xlink:href="#Lato-Regular-111"/>
     <use x="565.200043" xlink:href="#Lato-Regular-111"/>
     <use x="621.900055" xlink:href="#Lato-Regular-116"/>
    </g>
   </g>
   <g id="text_4">
    <!-- küste -->
    <defs>
     <path d="M 16 73.65625 
L 16 30.296875 
L 18.296875 30.296875 
Q 19.296875 30.296875 19.96875 30.5625 
Q 20.65625 30.84375 21.40625 31.703125 
L 37.40625 48.84375 
Q 38.09375 49.703125 38.875 50.171875 
Q 39.65625 50.65625 40.953125 50.65625 
L 49 50.65625 
L 30.34375 30.796875 
Q 29 29.09375 27.453125 28.15625 
Q 28.34375 27.546875 29.0625 26.765625 
Q 29.796875 26 30.453125 25 
L 50.25 0 
L 42.296875 0 
Q 41.15625 0 40.328125 0.375 
Q 39.5 0.75 38.90625 1.75 
L 22.25 22.5 
Q 21.5 23.546875 20.765625 23.875 
Q 20.046875 24.203125 18.546875 24.203125 
L 16 24.203125 
L 16 0 
L 7.046875 0 
L 7.046875 73.65625 
z
" id="Lato-Regular-107"/>
    </defs>
    <g transform="translate(271.544192 156.950111)scale(0.1 -0.1)">
     <use xlink:href="#Lato-Regular-107"/>
     <use x="50.800003" xlink:href="#Lato-Regular-252"/>
     <use x="106.550003" xlink:href="#Lato-Regular-115"/>
     <use x="149.850006" xlink:href="#Lato-Regular-116"/>
     <use x="185.700012" xlink:href="#Lato-Regular-101"/>
    </g>
   </g>
   <g id="text_5">
    <!-- boot -->
    <g transform="translate(142.252486 304.81217)scale(0.1 -0.1)">
     <use xlink:href="#Lato-Regular-98"/>
     <use x="56" xlink:href="#Lato-Regular-111"/>
     <use x="112.700012" xlink:href="#Lato-Regular-111"/>
     <use x="169.400024" xlink:href="#Lato-Regular-116"/>
    </g>
   </g>
   <g id="text_6">
    <!-- schiffbrüchiger -->
    <g transform="translate(86.107097 242.93782)scale(0.1 -0.1)">
     <use xlink:href="#Lato-Regular-115"/>
     <use x="43.300003" xlink:href="#Lato-Regular-99"/>
     <use x="91.050003" xlink:href="#Lato-Regular-104"/>
     <use x="146.850006" xlink:href="#Lato-Regular-105"/>
     <use x="170.850006" xlink:href="#Lato-Regular-102"/>
     <use x="205.900009" xlink:href="#Lato-Regular-102"/>
     <use x="240.950012" xlink:href="#Lato-Regular-98"/>
     <use x="296.950012" xlink:href="#Lato-Regular-114"/>
     <use x="333.350021" xlink:href="#Lato-Regular-252"/>
     <use x="389.100021" xlink:href="#Lato-Regular-99"/>
     <use x="436.850021" xlink:href="#Lato-Regular-104"/>
     <use x="492.650024" xlink:href="#Lato-Regular-105"/>
     <use x="516.650024" xlink:href="#Lato-Regular-103"/>
     <use x="568.650024" xlink:href="#Lato-Regular-101"/>
     <use x="621.450027" xlink:href="#Lato-Regular-114"/>
    </g>
   </g>
   <g id="text_7">
    <!-- frontex -->
    <defs>
     <path d="M 18.90625 25.953125 
L 1.84375 50.65625 
L 10.40625 50.65625 
Q 11.5 50.65625 12 50.296875 
Q 12.5 49.953125 12.90625 49.296875 
L 25.296875 30.296875 
Q 25.75 31.703125 26.59375 33.09375 
L 37.5 49.09375 
Q 37.953125 49.796875 38.46875 50.21875 
Q 39 50.65625 39.75 50.65625 
L 47.953125 50.65625 
L 30.90625 26.453125 
L 48.65625 0 
L 40.09375 0 
Q 39 0 38.375 0.578125 
Q 37.75 1.15625 37.34375 1.84375 
L 24.59375 21.703125 
Q 24.25 20.25 23.546875 19.09375 
L 11.75 1.84375 
Q 11.25 1.15625 10.671875 0.578125 
Q 10.09375 0 9.09375 0 
L 1.15625 0 
z
" id="Lato-Regular-120"/>
    </defs>
    <g transform="translate(69.377537 246.451262)scale(0.1 -0.1)">
     <use xlink:href="#Lato-Regular-102"/>
     <use x="35.050003" xlink:href="#Lato-Regular-114"/>
     <use x="71.418762" xlink:href="#Lato-Regular-111"/>
     <use x="128.118774" xlink:href="#Lato-Regular-110"/>
     <use x="183.918777" xlink:href="#Lato-Regular-116"/>
     <use x="219.768784" xlink:href="#Lato-Regular-101"/>
     <use x="272.568787" xlink:href="#Lato-Regular-120"/>
    </g>
   </g>
   <g id="text_8">
    <!-- ertrinken -->
    <g transform="translate(107.057778 63.057997)scale(0.1 -0.1)">
     <use xlink:href="#Lato-Regular-101"/>
     <use x="52.800003" xlink:href="#Lato-Regular-114"/>
     <use x="89.200012" xlink:href="#Lato-Regular-116"/>
     <use x="125.050018" xlink:href="#Lato-Regular-114"/>
     <use x="161.450027" xlink:href="#Lato-Regular-105"/>
     <use x="185.450027" xlink:href="#Lato-Regular-110"/>
     <use x="241.250031" xlink:href="#Lato-Regular-107"/>
     <use x="292.018784" xlink:href="#Lato-Regular-101"/>
     <use x="344.818787" xlink:href="#Lato-Regular-110"/>
    </g>
   </g>
   <g id="text_9">
    <!-- seenot -->
    <g transform="translate(82.165083 293.934611)scale(0.1 -0.1)">
     <use xlink:href="#Lato-Regular-115"/>
     <use x="43.300003" xlink:href="#Lato-Regular-101"/>
     <use x="96.100006" xlink:href="#Lato-Regular-101"/>
     <use x="148.900009" xlink:href="#Lato-Regular-110"/>
     <use x="204.700012" xlink:href="#Lato-Regular-111"/>
     <use x="261.400024" xlink:href="#Lato-Regular-116"/>
    </g>
   </g>
   <g id="text_10">
    <!-- lampedusa -->
    <defs>
     <path d="M 7.046875 -17.15625 
L 7.046875 50.65625 
L 12.40625 50.65625 
Q 14.296875 50.65625 14.75 48.796875 
L 15.5 42.796875 
Q 18.75 46.75 22.953125 49.140625 
Q 27.15625 51.546875 32.546875 51.546875 
Q 36.953125 51.546875 40.5 49.875 
Q 44.046875 48.203125 46.546875 44.921875 
Q 49.046875 41.65625 50.390625 36.796875 
Q 51.75 31.953125 51.75 25.65625 
Q 51.75 20.046875 50.25 15.21875 
Q 48.75 10.40625 45.921875 6.875 
Q 43.09375 3.34375 39.015625 1.3125 
Q 34.953125 -0.703125 29.84375 -0.703125 
Q 25.203125 -0.703125 21.875 0.84375 
Q 18.546875 2.40625 16 5.25 
L 16 -17.15625 
z
M 29.65625 44.34375 
Q 25.296875 44.34375 22.015625 42.34375 
Q 18.75 40.34375 16 36.703125 
L 16 12.203125 
Q 18.40625 8.90625 21.328125 7.546875 
Q 24.25 6.203125 27.84375 6.203125 
Q 34.953125 6.203125 38.75 11.25 
Q 42.546875 16.296875 42.546875 25.65625 
Q 42.546875 30.59375 41.671875 34.140625 
Q 40.796875 37.703125 39.140625 39.96875 
Q 37.5 42.25 35.09375 43.296875 
Q 32.703125 44.34375 29.65625 44.34375 
z
" id="Lato-Regular-112"/>
     <path d="M 43.65625 0 
Q 41.75 0 41.25 1.84375 
L 40.453125 8 
Q 37.203125 4.046875 33.015625 1.671875 
Q 28.84375 -0.703125 23.453125 -0.703125 
Q 19.09375 -0.703125 15.546875 0.96875 
Q 12 2.65625 9.5 5.90625 
Q 7 9.15625 5.640625 14 
Q 4.296875 18.84375 4.296875 25.15625 
Q 4.296875 30.75 5.796875 35.578125 
Q 7.296875 40.40625 10.09375 43.953125 
Q 12.90625 47.5 16.96875 49.515625 
Q 21.046875 51.546875 26.15625 51.546875 
Q 30.796875 51.546875 34.125 49.96875 
Q 37.453125 48.40625 40.046875 45.546875 
L 40.046875 73.65625 
L 48.953125 73.65625 
L 48.953125 0 
z
M 26.34375 6.5 
Q 30.75 6.5 34.015625 8.5 
Q 37.296875 10.5 40.046875 14.15625 
L 40.046875 38.59375 
Q 37.546875 41.90625 34.640625 43.25 
Q 31.75 44.59375 28.15625 44.59375 
Q 21.09375 44.59375 17.296875 39.546875 
Q 13.5 34.5 13.5 25.15625 
Q 13.5 20.203125 14.34375 16.671875 
Q 15.203125 13.15625 16.84375 10.875 
Q 18.5 8.59375 20.890625 7.546875 
Q 23.296875 6.5 26.34375 6.5 
z
" id="Lato-Regular-100"/>
    </defs>
    <g transform="translate(65.317608 123.308294)scale(0.1 -0.1)">
     <use xlink:href="#Lato-Regular-108"/>
     <use x="23.600006" xlink:href="#Lato-Regular-97"/>
     <use x="73.300018" xlink:href="#Lato-Regular-109"/>
     <use x="155.550034" xlink:href="#Lato-Regular-112"/>
     <use x="211.600037" xlink:href="#Lato-Regular-101"/>
     <use x="264.40004" xlink:href="#Lato-Regular-100"/>
     <use x="320.40004" xlink:href="#Lato-Regular-117"/>
     <use x="376.15004" xlink:href="#Lato-Regular-115"/>
     <use x="419.450043" xlink:href="#Lato-Regular-97"/>
    </g>
   </g>
   <g id="text_11">
    <!-- hafen -->
    <g transform="translate(313.614258 255.558008)scale(0.1 -0.1)">
     <use xlink:href="#Lato-Regular-104"/>
     <use x="55.800003" xlink:href="#Lato-Regular-97"/>
     <use x="105.500015" xlink:href="#Lato-Regular-102"/>
     <use x="140.534393" xlink:href="#Lato-Regular-101"/>
     <use x="193.334396" xlink:href="#Lato-Regular-110"/>
    </g>
   </g>
  </g>
 </g>
 <defs>
  <clipPath id="p4e51aa4a0a">
   <rect height="271.8" width="279" x="45" y="43.2"/>
  </clipPath>
 </defs>
</svg>
